<?xml version="1.0" encoding="UTF-8"?><svg xmlns="http://www.w3.org/2000/svg" viewBox="0 0 601.07 162.22"><g id="a"><line x1="77.1" y1="70.54" x2="77.46" y2="159.51" fill="none" stroke="#fff" stroke-miterlimit="10" stroke-width="5"/><line x1="101.43" y1="156.42" x2="101.43" y2="108.18" fill="none" stroke="#fff" stroke-miterlimit="10" stroke-width="5"/><line x1="121.34" y1="89.18" x2="100.78" y2="109.75" fill="none" stroke="#fff" stroke-miterlimit="10" stroke-width="5"/><circle cx="126.67" cy="83.86" r="8.57" fill="none" stroke="#fff" stroke-miterlimit="10" stroke-width="5"/><line x1="90.24" y1="159.08" x2="90.24" y2="91.29" fill="none" stroke="#fff" stroke-miterlimit="10" stroke-width="5"/><line x1="107.48" y1="74.91" x2="89.59" y2="92.8" fill="none" stroke="#fff" stroke-miterlimit="10" stroke-width="5"/><line x1="106.64" y1="49.89" x2="106.64" y2="76.86" fill="none" stroke="#fff" stroke-miterlimit="10" stroke-width="5"/><circle cx="106.64" cy="41.32" r="8.57" fill="none" stroke="#fff" stroke-miterlimit="10" stroke-width="5"/><line x1="59.21" y1="154.28" x2="59.21" y2="115.52" fill="none" stroke="#fff" stroke-miterlimit="10" stroke-width="5"/><line x1="59.21" y1="79.53" x2="59.21" y2="99.62" fill="none" stroke="#fff" stroke-miterlimit="10" stroke-width="5"/><line x1="45.82" y1="67.19" x2="59.99" y2="81.36" fill="none" stroke="#fff" stroke-miterlimit="10" stroke-width="5"/><line x1="36.81" y1="145.18" x2="36.81" y2="95.67" fill="none" stroke="#fff" stroke-miterlimit="10" stroke-width="5"/><line x1="120.3" y1="150.5" x2="120.3" y2="124.09" fill="none" stroke="#fff" stroke-miterlimit="10" stroke-width="5"/><circle cx="120.3" cy="116.2" r="8.57" fill="none" stroke="#fff" stroke-miterlimit="10" stroke-width="5"/><circle cx="77.08" cy="63.49" r="8.57" fill="none" stroke="#fff" stroke-miterlimit="10" stroke-width="5"/><circle cx="59.21" cy="108.18" r="8.57" fill="none" stroke="#fff" stroke-miterlimit="10" stroke-width="5"/><circle cx="41.34" cy="62.71" r="8.57" fill="none" stroke="#fff" stroke-miterlimit="10" stroke-width="5"/><circle cx="36.81" cy="89.57" r="8.57" fill="none" stroke="#fff" stroke-miterlimit="10" stroke-width="5"/><circle cx="82.03" cy="81" r="78.5" fill="none" stroke="#fff" stroke-miterlimit="10" stroke-width="5"/></g><g id="b"><path d="m187.62,101.87v22.41h-2.98v-22.41h2.98Z" fill="#fff"/><path d="m194.72,108.05v2.57h.06c1.11-1.97,2.87-2.95,5.27-2.95,1.07,0,1.96.15,2.67.44s1.29.7,1.73,1.22c.44.52.75,1.15.93,1.87.18.72.27,1.52.27,2.4v10.67h-2.67v-10.99c0-1-.29-1.8-.88-2.39-.59-.58-1.39-.88-2.42-.88-.82,0-1.52.13-2.12.38-.6.25-1.09.61-1.49,1.07-.4.46-.7,1-.89,1.62-.2.62-.3,1.29-.3,2.03v9.17h-2.67v-16.23h2.51Z" fill="#fff"/><path d="m212.17,108.05v2.57h.06c1.11-1.97,2.87-2.95,5.27-2.95,1.07,0,1.96.15,2.67.44s1.29.7,1.73,1.22c.44.52.75,1.15.93,1.87.18.72.27,1.52.27,2.4v10.67h-2.67v-10.99c0-1-.29-1.8-.88-2.39-.59-.58-1.39-.88-2.42-.88-.82,0-1.52.13-2.12.38-.6.25-1.09.61-1.49,1.07-.4.46-.7,1-.89,1.62-.2.62-.3,1.29-.3,2.03v9.17h-2.67v-16.23h2.51Z" fill="#fff"/><path d="m226.74,112.84c.33-1.04.84-1.94,1.51-2.7.67-.76,1.5-1.37,2.48-1.8.98-.44,2.11-.66,3.39-.66s2.43.22,3.41.66,1.79,1.04,2.46,1.8c.67.76,1.17,1.66,1.51,2.7.33,1.04.5,2.15.5,3.34s-.17,2.3-.5,3.33c-.33,1.03-.84,1.92-1.51,2.68-.67.76-1.49,1.36-2.46,1.79s-2.11.64-3.41.64-2.41-.21-3.39-.64c-.98-.43-1.81-1.03-2.48-1.79-.67-.76-1.17-1.66-1.51-2.68-.33-1.03-.5-2.13-.5-3.33s.17-2.31.5-3.34Zm2.72,5.96c.26.76.62,1.4,1.08,1.92.46.51,1,.91,1.62,1.18.62.27,1.27.41,1.96.41s1.34-.14,1.96-.41c.62-.27,1.16-.66,1.62-1.18.46-.51.82-1.15,1.08-1.92.26-.76.39-1.64.39-2.62s-.13-1.86-.39-2.62c-.26-.76-.62-1.41-1.08-1.93-.46-.52-1-.92-1.62-1.19-.62-.27-1.27-.41-1.96-.41s-1.34.14-1.96.41c-.62.27-1.16.67-1.62,1.19-.46.52-.82,1.17-1.08,1.93-.26.76-.39,1.64-.39,2.62s.13,1.86.39,2.62Z" fill="#fff"/><path d="m249.59,124.28l-6.03-16.23h2.98l4.55,13.53h.06l4.43-13.53h2.79l-5.93,16.23h-2.86Z" fill="#fff"/><path d="m275.2,124.22c-.46.27-1.1.41-1.92.41-.69,0-1.24-.19-1.65-.58s-.61-1.02-.61-1.9c-.73.88-1.58,1.51-2.56,1.9s-2.02.58-3.15.58c-.73,0-1.43-.08-2.09-.25-.66-.17-1.23-.43-1.71-.78-.48-.36-.86-.82-1.15-1.4-.28-.58-.42-1.27-.42-2.09,0-.92.16-1.67.47-2.26.31-.58.73-1.06,1.24-1.43.51-.37,1.1-.64,1.76-.83s1.33-.35,2.02-.47c.73-.15,1.43-.26,2.09-.33.66-.07,1.24-.18,1.74-.31.5-.14.9-.33,1.19-.6s.44-.64.44-1.15c0-.59-.11-1.06-.33-1.41-.22-.36-.5-.63-.85-.82-.35-.19-.73-.31-1.16-.38-.43-.06-.85-.09-1.27-.09-1.13,0-2.07.21-2.83.64-.75.43-1.16,1.24-1.22,2.43h-2.67c.04-1,.25-1.85.63-2.54.38-.69.88-1.25,1.51-1.68.63-.43,1.34-.74,2.15-.93.81-.19,1.67-.28,2.59-.28.73,0,1.46.05,2.18.16.72.1,1.38.32,1.96.64.59.32,1.06.78,1.41,1.36.36.58.53,1.35.53,2.29v8.33c0,.63.04,1.09.11,1.38.07.29.32.44.74.44.23,0,.5-.04.82-.13v2.07Zm-4.33-8.32c-.33.25-.77.43-1.32.55-.54.12-1.11.21-1.71.28-.6.07-1.2.16-1.81.25s-1.15.25-1.63.45-.87.5-1.18.89c-.3.38-.46.91-.46,1.58,0,.44.09.81.27,1.11.18.3.41.55.69.73.28.19.61.32.99.41.38.08.77.12,1.19.12.88,0,1.63-.12,2.26-.36s1.14-.54,1.54-.91c.4-.36.69-.76.88-1.19.19-.43.28-.83.28-1.2v-2.72Z" fill="#fff"/><path d="m284.62,108.05v2.35h-3.23v10.08c0,.31.03.56.08.75s.15.33.3.44c.15.1.35.17.61.2.26.03.6.05,1.02.05h1.22v2.35h-2.04c-.69,0-1.28-.05-1.77-.14-.49-.09-.89-.27-1.19-.52-.3-.25-.53-.61-.67-1.07-.15-.46-.22-1.07-.22-1.82v-10.33h-2.76v-2.35h2.76v-4.87h2.67v4.87h3.23Z" fill="#fff"/><path d="m287.73,105.14v-3.26h2.67v3.26h-2.67Zm2.67,2.92v16.23h-2.67v-16.23h2.67Z" fill="#fff"/><path d="m294.16,112.84c.33-1.04.84-1.94,1.51-2.7.67-.76,1.5-1.37,2.48-1.8.98-.44,2.11-.66,3.39-.66s2.43.22,3.41.66,1.79,1.04,2.46,1.8c.67.76,1.17,1.66,1.51,2.7.33,1.04.5,2.15.5,3.34s-.17,2.3-.5,3.33c-.33,1.03-.84,1.92-1.51,2.68-.67.76-1.49,1.36-2.46,1.79s-2.11.64-3.41.64-2.41-.21-3.39-.64c-.98-.43-1.81-1.03-2.48-1.79-.67-.76-1.17-1.66-1.51-2.68-.33-1.03-.5-2.13-.5-3.33s.17-2.31.5-3.34Zm2.72,5.96c.26.76.62,1.4,1.08,1.92.46.51,1,.91,1.62,1.18.62.27,1.27.41,1.96.41s1.34-.14,1.96-.41c.62-.27,1.16-.66,1.62-1.18.46-.51.82-1.15,1.08-1.92.26-.76.39-1.64.39-2.62s-.13-1.86-.39-2.62c-.26-.76-.62-1.41-1.08-1.93-.46-.52-1-.92-1.62-1.19-.62-.27-1.27-.41-1.96-.41s-1.34.14-1.96.41c-.62.27-1.16.67-1.62,1.19-.46.52-.82,1.17-1.08,1.93-.26.76-.39,1.64-.39,2.62s.13,1.86.39,2.62Z" fill="#fff"/><path d="m315.07,108.05v2.57h.06c1.11-1.97,2.87-2.95,5.27-2.95,1.07,0,1.96.15,2.67.44.71.29,1.29.7,1.73,1.22.44.52.75,1.15.93,1.87.18.72.27,1.52.27,2.4v10.67h-2.67v-10.99c0-1-.29-1.8-.88-2.39-.59-.58-1.39-.88-2.42-.88-.82,0-1.52.13-2.12.38-.6.25-1.09.61-1.49,1.07-.4.46-.7,1-.89,1.62-.2.62-.3,1.29-.3,2.03v9.17h-2.67v-16.23h2.51Z" fill="#fff"/><path d="m348.36,123.84c-1.16.52-2.36.79-3.59.79-1.51,0-2.72-.23-3.64-.69-.92-.46-1.63-1.01-2.13-1.66-.5-.65-.83-1.32-.99-2.01-.16-.69-.24-1.27-.24-1.73,0-.88.14-1.65.42-2.32.28-.67.66-1.27,1.13-1.8.47-.53,1.03-1.02,1.66-1.44.64-.43,1.31-.83,2.02-1.21-.31-.44-.62-.86-.91-1.25-.29-.4-.56-.8-.8-1.21-.24-.41-.43-.84-.57-1.29-.14-.45-.2-.96-.2-1.52,0-.61.11-1.19.33-1.74s.54-1.05.97-1.48c.43-.43.96-.77,1.59-1.02.63-.25,1.35-.38,2.17-.38.69,0,1.37.09,2.02.28s1.24.48,1.74.86c.5.39.91.87,1.21,1.44.3.58.46,1.24.46,1.99,0,.67-.12,1.29-.35,1.87-.23.58-.54,1.1-.94,1.58-.4.48-.85.92-1.35,1.3-.5.39-1.03.74-1.57,1.05l4.05,4.93c.42-1.17.66-2.33.72-3.48h2.54c-.06.67-.13,1.24-.2,1.71s-.17.91-.28,1.3c-.12.4-.26.79-.42,1.18-.17.39-.37.83-.6,1.33l4.36,5.05h-3.48l-2.39-2.79c-.67,1.05-1.58,1.83-2.75,2.35Zm-5.37-9.48c-.47.31-.88.67-1.24,1.07-.36.4-.64.84-.85,1.33-.21.49-.31,1.07-.31,1.74,0,.57.12,1.08.36,1.55.24.47.56.87.96,1.19.4.33.85.58,1.37.77.51.19,1.04.28,1.58.28,1.03,0,1.94-.24,2.75-.72s1.48-1.13,2.02-1.95l-5.15-6.18c-.52.29-1.02.6-1.49.91Zm3.37-4.55c.36-.25.68-.53.97-.85.29-.31.53-.66.72-1.05.19-.39.28-.82.28-1.3,0-.65-.23-1.21-.69-1.68s-1.09-.71-1.88-.71c-.63,0-1.21.19-1.76.58-.54.39-.82.99-.82,1.81,0,.33.07.67.2,1,.14.33.31.67.52.99s.44.64.69.96c.25.31.5.63.75.94.31-.21.65-.44,1-.69Z" fill="#fff"/><path d="m365.3,104.38v-2.51h17.92v2.51h-7.47v19.9h-2.98v-19.9h-7.47Z" fill="#fff"/><path d="m393.26,123.25c-1.21.92-2.74,1.38-4.58,1.38-1.3,0-2.42-.21-3.37-.63-.95-.42-1.75-1-2.4-1.76-.65-.75-1.13-1.65-1.46-2.7-.33-1.05-.51-2.19-.55-3.42,0-1.23.19-2.36.57-3.39s.9-1.92,1.58-2.67c.68-.75,1.49-1.34,2.42-1.76.93-.42,1.95-.63,3.06-.63,1.44,0,2.64.3,3.59.89.95.6,1.72,1.35,2.29,2.28.58.92.97,1.93,1.19,3.01.22,1.09.31,2.12.27,3.11h-12.15c-.02.71.06,1.39.25,2.03s.49,1.2.91,1.69c.42.49.95.88,1.6,1.18.65.29,1.41.44,2.29.44,1.13,0,2.06-.26,2.78-.79.72-.52,1.2-1.32,1.43-2.39h2.64c-.36,1.82-1.14,3.19-2.35,4.11Zm-.64-10.42c-.24-.56-.56-1.05-.97-1.46-.41-.41-.89-.73-1.44-.97-.55-.24-1.17-.36-1.84-.36s-1.31.12-1.87.36c-.55.24-1.03.57-1.43.99s-.71.91-.94,1.46c-.23.55-.37,1.15-.41,1.77h9.32c-.04-.63-.18-1.22-.42-1.79Z" fill="#fff"/><path d="m408.33,110.88c-.67-.56-1.57-.85-2.7-.85-.96,0-1.77.18-2.42.53s-1.17.83-1.55,1.41c-.39.59-.66,1.26-.83,2.03-.17.76-.25,1.55-.25,2.37,0,.75.09,1.49.27,2.2.18.71.46,1.34.83,1.9.38.55.87,1,1.48,1.33.61.33,1.33.5,2.17.5,1.32,0,2.35-.35,3.09-1.04s1.2-1.66,1.37-2.92h2.73c-.29,2.01-1.04,3.56-2.24,4.65-1.2,1.09-2.84,1.63-4.91,1.63-1.24,0-2.33-.2-3.28-.6s-1.75-.96-2.39-1.7-1.12-1.61-1.44-2.62c-.32-1.01-.49-2.13-.49-3.34s.16-2.35.47-3.41c.31-1.06.79-1.98,1.43-2.76.64-.78,1.44-1.4,2.4-1.85.96-.45,2.08-.67,3.36-.67.92,0,1.78.11,2.59.33s1.52.56,2.13,1.02,1.12,1.04,1.52,1.74.65,1.53.75,2.5h-2.76c-.21-1.02-.65-1.82-1.32-2.39Z" fill="#fff"/><path d="m418.16,101.87v8.57h.06c.21-.5.5-.93.88-1.27.38-.34.8-.63,1.27-.85s.96-.38,1.48-.49c.51-.1,1.01-.16,1.49-.16,1.07,0,1.96.15,2.67.44.71.29,1.29.7,1.73,1.22.44.52.75,1.15.93,1.87.18.72.27,1.52.27,2.4v10.67h-2.67v-10.99c0-1-.29-1.8-.88-2.39-.59-.58-1.39-.88-2.42-.88-.82,0-1.52.13-2.12.38s-1.09.61-1.49,1.07c-.4.46-.7,1-.89,1.62-.2.62-.3,1.29-.3,2.03v9.17h-2.67v-22.41h2.67Z" fill="#fff"/><path d="m435.45,108.05v2.57h.06c1.11-1.97,2.87-2.95,5.27-2.95,1.07,0,1.96.15,2.67.44.71.29,1.29.7,1.73,1.22.44.52.75,1.15.93,1.87.18.72.27,1.52.27,2.4v10.67h-2.67v-10.99c0-1-.29-1.8-.88-2.39-.59-.58-1.39-.88-2.42-.88-.82,0-1.52.13-2.12.38s-1.09.61-1.49,1.07c-.4.46-.7,1-.89,1.62-.2.62-.3,1.29-.3,2.03v9.17h-2.67v-16.23h2.51Z" fill="#fff"/><path d="m450.02,112.84c.33-1.04.84-1.94,1.51-2.7s1.5-1.37,2.48-1.8c.98-.44,2.11-.66,3.39-.66s2.43.22,3.41.66c.97.44,1.79,1.04,2.46,1.8s1.17,1.66,1.51,2.7c.33,1.04.5,2.15.5,3.34s-.17,2.3-.5,3.33-.84,1.92-1.51,2.68c-.67.76-1.49,1.36-2.46,1.79-.97.43-2.11.64-3.41.64s-2.41-.21-3.39-.64c-.98-.43-1.81-1.03-2.48-1.79-.67-.76-1.17-1.66-1.51-2.68-.34-1.03-.5-2.13-.5-3.33s.17-2.31.5-3.34Zm2.71,5.96c.26.76.62,1.4,1.08,1.92.46.51,1,.91,1.62,1.18.62.27,1.27.41,1.96.41s1.34-.14,1.96-.41c.62-.27,1.16-.66,1.62-1.18.46-.51.82-1.15,1.08-1.92s.39-1.64.39-2.62-.13-1.86-.39-2.62-.62-1.41-1.08-1.93c-.46-.52-1-.92-1.62-1.19-.62-.27-1.27-.41-1.96-.41s-1.34.14-1.96.41c-.62.27-1.16.67-1.62,1.19-.46.52-.82,1.17-1.08,1.93s-.39,1.64-.39,2.62.13,1.86.39,2.62Z" fill="#fff"/><path d="m471.24,101.87v22.41h-2.67v-22.41h2.67Z" fill="#fff"/><path d="m475.01,112.84c.33-1.04.84-1.94,1.51-2.7s1.5-1.37,2.48-1.8c.98-.44,2.11-.66,3.39-.66s2.43.22,3.41.66c.97.44,1.79,1.04,2.46,1.8s1.17,1.66,1.51,2.7c.33,1.04.5,2.15.5,3.34s-.17,2.3-.5,3.33-.84,1.92-1.51,2.68c-.67.76-1.49,1.36-2.46,1.79-.97.43-2.11.64-3.41.64s-2.41-.21-3.39-.64c-.98-.43-1.81-1.03-2.48-1.79-.67-.76-1.17-1.66-1.51-2.68-.34-1.03-.5-2.13-.5-3.33s.17-2.31.5-3.34Zm2.71,5.96c.26.76.62,1.4,1.08,1.92.46.51,1,.91,1.62,1.18.62.27,1.27.41,1.96.41s1.34-.14,1.96-.41c.62-.27,1.16-.66,1.62-1.18.46-.51.82-1.15,1.08-1.92s.39-1.64.39-2.62-.13-1.86-.39-2.62-.62-1.41-1.08-1.93c-.46-.52-1-.92-1.62-1.19-.62-.27-1.27-.41-1.96-.41s-1.34.14-1.96.41c-.62.27-1.16.67-1.62,1.19-.46.52-.82,1.17-1.08,1.93s-.39,1.64-.39,2.62.13,1.86.39,2.62Z" fill="#fff"/><path d="m505.58,128.87c-1.21,1.32-3.12,1.98-5.71,1.98-.75,0-1.52-.08-2.31-.25-.78-.17-1.5-.44-2.13-.82-.64-.38-1.17-.87-1.59-1.48-.42-.61-.65-1.35-.69-2.23h2.67c.02.48.17.89.46,1.22.28.33.63.61,1.04.82.41.21.85.36,1.33.46.48.09.94.14,1.38.14.88,0,1.62-.15,2.23-.46.61-.3,1.11-.72,1.51-1.26.4-.53.69-1.18.86-1.93.18-.75.27-1.58.27-2.48v-1.07h-.06c-.46,1-1.16,1.74-2.09,2.21-.93.47-1.92.71-2.97.71-1.21,0-2.27-.22-3.17-.66-.9-.44-1.65-1.03-2.26-1.77-.61-.74-1.06-1.61-1.37-2.61s-.46-2.05-.46-3.16c0-.96.13-1.95.38-2.97.25-1.01.67-1.94,1.26-2.76.58-.83,1.36-1.51,2.32-2.04.96-.53,2.15-.8,3.55-.8,1.02,0,1.97.22,2.83.67.86.45,1.53,1.12,2.01,2.02h.03v-2.32h2.51v14.85c0,2.66-.61,4.65-1.82,5.96Zm-3.41-7.3c.62-.37,1.11-.85,1.49-1.44.38-.6.65-1.27.83-2.02.18-.75.27-1.51.27-2.26,0-.71-.08-1.41-.25-2.1-.17-.69-.43-1.31-.8-1.87-.37-.55-.84-1-1.43-1.33s-1.3-.5-2.13-.5-1.59.16-2.2.49c-.61.32-1.1.76-1.49,1.3-.39.54-.67,1.17-.85,1.88-.18.71-.27,1.46-.27,2.23,0,.73.07,1.46.22,2.2s.4,1.4.75,1.99c.36.6.83,1.08,1.41,1.44s1.32.55,2.2.55,1.63-.18,2.25-.55Z" fill="#fff"/><path d="m517.79,126.45c-.31.79-.62,1.46-.93,2.01s-.64.99-1,1.33c-.37.35-.77.6-1.22.75s-.97.24-1.55.24c-.31,0-.63-.02-.94-.06-.31-.04-.62-.12-.91-.22v-2.45c.23.1.5.19.8.27.3.07.56.11.77.11.54,0,1-.13,1.37-.39s.64-.63.83-1.11l1.1-2.73-6.44-16.14h3.01l4.74,13.28h.06l4.55-13.28h2.83l-7.06,18.4Z" fill="#fff"/><path d="m539.26,101.87v9.64h11.8v-9.64h2.98v22.41h-2.98v-10.26h-11.8v10.26h-2.98v-22.41h2.98Z" fill="#fff"/><path d="m574.55,122.64c-1.53,1.43-3.7,2.15-6.53,2.15s-5.14-.68-6.76-2.06c-1.62-1.37-2.43-3.55-2.43-6.54v-14.31h2.98v14.31c0,2.01.53,3.53,1.6,4.57s2.61,1.55,4.61,1.55c1.9,0,3.35-.52,4.35-1.55s1.49-2.56,1.49-4.57v-14.31h2.98v14.31c0,2.87-.76,5.02-2.29,6.45Z" fill="#fff"/><path d="m589.74,101.87c.48,0,1,0,1.55.02.55.01,1.1.04,1.65.09.54.05,1.05.13,1.52.24.47.11.87.26,1.21.47.73.44,1.35,1.05,1.87,1.82.51.77.77,1.73.77,2.86,0,1.19-.29,2.22-.86,3.09-.58.87-1.4,1.51-2.46,1.93v.06c1.38.29,2.44.92,3.17,1.88.73.96,1.1,2.13,1.1,3.52,0,.82-.15,1.61-.44,2.39-.29.77-.73,1.46-1.3,2.06-.58.6-1.29,1.08-2.13,1.44-.85.37-1.83.55-2.94.55h-10.83v-22.41h8.13Zm.82,9.64c1.7,0,2.91-.3,3.66-.89s1.11-1.49,1.11-2.68c0-.79-.12-1.42-.38-1.88-.25-.46-.6-.82-1.04-1.07s-.95-.41-1.52-.49c-.58-.07-1.19-.11-1.84-.11h-5.96v7.13h5.96Zm1.51,10.26c1.32,0,2.35-.36,3.09-1.07.74-.71,1.11-1.7,1.11-2.95,0-.73-.14-1.34-.41-1.82-.27-.48-.63-.86-1.08-1.15-.45-.28-.97-.48-1.55-.6-.59-.12-1.19-.17-1.82-.17h-6.81v7.75h7.47Z" fill="#fff"/><path d="m218.16,84.99l-.5-7.21h-.11c-.67,1.41-1.49,2.62-2.47,3.63-.98,1.02-2.06,1.85-3.24,2.49-1.18.65-2.45,1.12-3.8,1.41-1.35.29-2.74.44-4.19.44-3.1,0-5.83-.56-8.18-1.69-2.35-1.13-4.3-2.63-5.85-4.52-1.55-1.89-2.72-4.07-3.49-6.54-.78-2.48-1.16-5.08-1.16-7.82s.39-5.34,1.16-7.82c.78-2.48,1.94-4.67,3.49-6.57,1.55-1.9,3.5-3.42,5.85-4.55,2.35-1.13,5.07-1.69,8.18-1.69,2.07,0,4.03.28,5.88.83,1.85.55,3.49,1.39,4.93,2.5,1.44,1.11,2.66,2.48,3.66,4.1,1,1.63,1.68,3.53,2.05,5.71h-3.77c-.11-1.15-.49-2.3-1.14-3.46-.65-1.16-1.52-2.23-2.61-3.19-1.09-.96-2.39-1.75-3.91-2.36-1.52-.61-3.22-.91-5.1-.91-2.62,0-4.88.5-6.76,1.5s-3.43,2.32-4.63,3.96c-1.2,1.65-2.09,3.5-2.66,5.57-.57,2.07-.86,4.2-.86,6.38s.29,4.26.86,6.35c.57,2.09,1.46,3.96,2.66,5.6,1.2,1.65,2.74,2.97,4.63,3.96s4.14,1.5,6.76,1.5c2.18,0,4.13-.36,5.85-1.08,1.72-.72,3.17-1.73,4.35-3.02,1.18-1.29,2.07-2.83,2.66-4.6.59-1.77.87-3.71.83-5.82h-13.47v-3.22h16.8v20.12h-2.72Z" fill="#fff"/><path d="m243.94,45.4l15.52,39.58h-4.05l-4.82-12.31h-18.02l-4.77,12.31h-3.99l15.91-39.58h4.21Zm5.38,24.06l-7.65-20.29-7.93,20.29h15.58Z" fill="#fff"/><path d="m281.19,45.4c1.63,0,3.17.2,4.63.61,1.46.41,2.73,1.03,3.83,1.86,1.09.83,1.96,1.9,2.61,3.22.65,1.31.97,2.85.97,4.63,0,2.51-.65,4.69-1.94,6.54-1.29,1.85-3.22,3.03-5.77,3.55v.11c1.29.19,2.36.53,3.22,1.03.85.5,1.54,1.14,2.08,1.91.54.78.92,1.67,1.16,2.69.24,1.02.4,2.12.47,3.3.04.67.07,1.48.11,2.44.04.96.11,1.93.22,2.91s.29,1.9.53,2.77c.24.87.56,1.54.97,2.02h-4.16c-.22-.37-.4-.82-.53-1.36-.13-.54-.22-1.09-.28-1.66-.06-.57-.1-1.14-.14-1.69-.04-.55-.07-1.03-.11-1.44-.07-1.4-.19-2.8-.36-4.19-.17-1.39-.52-2.62-1.05-3.71-.54-1.09-1.31-1.97-2.33-2.63-1.02-.67-2.41-.96-4.19-.89h-14.3v17.57h-3.77v-39.58h18.13Zm-.28,18.79c1.15,0,2.24-.18,3.27-.53,1.03-.35,1.94-.86,2.72-1.52.78-.67,1.39-1.47,1.86-2.41.46-.94.69-2.02.69-3.24,0-2.44-.7-4.36-2.11-5.77-1.4-1.4-3.55-2.11-6.43-2.11h-14.08v15.58h14.08Z" fill="#fff"/><path d="m313.74,45.4c6.02.15,10.56,1.84,13.61,5.07,3.05,3.23,4.57,8.14,4.57,14.72s-1.52,11.49-4.57,14.72c-3.05,3.23-7.59,4.93-13.61,5.07h-13.69v-39.58h13.69Zm-1.88,36.37c2.85,0,5.29-.3,7.35-.91,2.05-.61,3.74-1.58,5.07-2.91,1.33-1.33,2.31-3.05,2.94-5.16.63-2.11.94-4.64.94-7.6s-.31-5.49-.94-7.59c-.63-2.11-1.61-3.83-2.94-5.16-1.33-1.33-3.02-2.3-5.07-2.91s-4.5-.91-7.35-.91h-8.04v33.15h8.04Z" fill="#fff"/><path d="m365.35,45.4v3.22h-23.56v14.3h22.06v3.22h-22.06v15.63h23.84v3.22h-27.61v-39.58h27.33Z" fill="#fff"/><path d="m375.05,45.4l23.06,33.48h.11v-33.48h3.77v39.58h-4.21l-23.06-33.48h-.11v33.48h-3.77v-39.58h4.21Z" fill="#fff"/><path d="m443.46,45.4c1.63,0,3.17.2,4.63.61,1.46.41,2.73,1.03,3.83,1.86,1.09.83,1.96,1.9,2.61,3.22.65,1.31.97,2.85.97,4.63,0,2.51-.65,4.69-1.94,6.54-1.29,1.85-3.22,3.03-5.77,3.55v.11c1.29.19,2.36.53,3.21,1.03.85.5,1.54,1.14,2.08,1.91.54.78.92,1.67,1.16,2.69.24,1.02.4,2.12.47,3.3.04.67.07,1.48.11,2.44.04.96.11,1.93.22,2.91.11.98.29,1.9.53,2.77.24.87.56,1.54.97,2.02h-4.16c-.22-.37-.4-.82-.53-1.36-.13-.54-.22-1.09-.28-1.66-.05-.57-.1-1.14-.14-1.69-.04-.55-.07-1.03-.11-1.44-.07-1.4-.19-2.8-.36-4.19-.17-1.39-.52-2.62-1.05-3.71-.54-1.09-1.31-1.97-2.33-2.63-1.02-.67-2.41-.96-4.19-.89h-14.3v17.57h-3.77v-39.58h18.13Zm-.28,18.79c1.14,0,2.24-.18,3.27-.53,1.03-.35,1.94-.86,2.72-1.52.78-.67,1.39-1.47,1.86-2.41.46-.94.69-2.02.69-3.24,0-2.44-.7-4.36-2.11-5.77-1.41-1.4-3.55-2.11-6.43-2.11h-14.08v15.58h14.08Z" fill="#fff"/><path d="m461.37,57.38c.78-2.48,1.94-4.67,3.49-6.57,1.55-1.9,3.5-3.42,5.85-4.55,2.35-1.13,5.07-1.69,8.18-1.69s5.82.56,8.15,1.69c2.33,1.13,4.27,2.64,5.82,4.55,1.55,1.9,2.72,4.09,3.49,6.57.78,2.48,1.16,5.08,1.16,7.82s-.39,5.34-1.16,7.82c-.78,2.48-1.94,4.66-3.49,6.54-1.55,1.88-3.49,3.39-5.82,4.52s-5.04,1.69-8.15,1.69-5.83-.56-8.18-1.69c-2.35-1.13-4.3-2.63-5.85-4.52-1.55-1.89-2.72-4.07-3.49-6.54-.78-2.48-1.16-5.08-1.16-7.82s.39-5.34,1.16-7.82Zm3.46,14.16c.57,2.09,1.46,3.96,2.66,5.6,1.2,1.65,2.74,2.97,4.63,3.96,1.89,1,4.14,1.5,6.76,1.5s4.87-.5,6.74-1.5c1.87-1,3.4-2.32,4.6-3.96,1.2-1.64,2.09-3.51,2.66-5.6.57-2.09.86-4.2.86-6.35s-.29-4.31-.86-6.38c-.57-2.07-1.46-3.93-2.66-5.57-1.2-1.64-2.74-2.97-4.6-3.96-1.87-1-4.11-1.5-6.74-1.5s-4.88.5-6.76,1.5c-1.88,1-3.43,2.32-4.63,3.96-1.2,1.65-2.09,3.5-2.66,5.57-.57,2.07-.86,4.2-.86,6.38s.29,4.26.86,6.35Z" fill="#fff"/><path d="m506.77,45.4v24.5c0,2.29.26,4.24.78,5.85s1.28,2.92,2.27,3.94c1,1.02,2.22,1.76,3.66,2.22,1.44.46,3.07.69,4.88.69s3.49-.23,4.93-.69c1.44-.46,2.66-1.2,3.66-2.22s1.75-2.33,2.27-3.94c.52-1.61.78-3.56.78-5.85v-24.5h3.77v25.34c0,2.03-.29,3.96-.86,5.79-.57,1.83-1.48,3.43-2.72,4.79-1.24,1.37-2.83,2.45-4.77,3.24-1.94.79-4.3,1.19-7.07,1.19s-5.07-.4-7.01-1.19c-1.94-.79-3.53-1.88-4.77-3.24-1.24-1.37-2.14-2.97-2.72-4.79-.57-1.83-.86-3.76-.86-5.79v-25.34h3.77Z" fill="#fff"/><path d="m568.47,45.4v3.22h-13.8v36.37h-3.77v-36.37h-13.75v-3.22h31.32Z" fill="#fff"/><path d="m599.52,45.4v3.22h-23.56v14.3h22.06v3.22h-22.06v15.63h23.84v3.22h-27.61v-39.58h27.33Z" fill="#fff"/></g></svg>