<?xml version="1.0" encoding="utf-8"?>
<!-- Generator: Adobe Illustrator 27.5.0, SVG Export Plug-In . SVG Version: 6.00 Build 0)  -->
<svg version="1.1" xmlns="http://www.w3.org/2000/svg" xmlns:xlink="http://www.w3.org/1999/xlink" x="0px" y="0px"
	 viewBox="0 0 634.4 177.5" style="enable-background:new 0 0 634.4 177.5;" xml:space="preserve">
<style type="text/css">
	.st0{fill:#FFFFFF;}
	.st1{fill:none;stroke:#E92938;stroke-width:5;stroke-miterlimit:10;}
	.st2{display:none;}
	.st3{fill:#FFFFFF;stroke:#000000;stroke-miterlimit:10;}
	.st4{display:inline;fill:none;}
	.st5{display:inline;fill:none;stroke:#000000;stroke-width:5;stroke-miterlimit:10;}
	.st6{fill:#444444;}
	.st7{font-family:'HelveticaNeue';}
	.st8{font-size:31.3911px;}
	.st9{font-family:'HelveticaNeue-Light';}
	.st10{font-size:55.4381px;}
</style>
<g id="color">
	<circle class="st0" cx="94.8" cy="89.5" r="74.6"/>
	<line class="st1" x1="89.9" y1="79" x2="90.2" y2="168"/>
	<line class="st1" x1="114.2" y1="164.9" x2="114.2" y2="116.6"/>
	<line class="st1" x1="134.1" y1="97.6" x2="113.5" y2="118.2"/>
	<circle class="st1" cx="139.4" cy="92.3" r="8.6"/>
	<line class="st1" x1="103" y1="167.5" x2="103" y2="99.7"/>
	<line class="st1" x1="120.2" y1="83.4" x2="102.4" y2="101.3"/>
	<line class="st1" x1="119.4" y1="58.3" x2="119.4" y2="85.3"/>
	<circle class="st1" cx="119.4" cy="49.8" r="8.6"/>
	<line class="st1" x1="72" y1="162.7" x2="72" y2="124"/>
	<line class="st1" x1="72" y1="88" x2="72" y2="108.1"/>
	<line class="st1" x1="58.6" y1="75.6" x2="72.8" y2="89.8"/>
	<line class="st1" x1="49.6" y1="153.6" x2="49.6" y2="104.1"/>
	<line class="st1" x1="133.1" y1="159" x2="133.1" y2="132.5"/>
	<circle class="st1" cx="133.1" cy="124.6" r="8.6"/>
	<circle class="st1" cx="89.8" cy="71.9" r="8.6"/>
	<circle class="st1" cx="72" cy="116.6" r="8.6"/>
	<circle class="st1" cx="54.1" cy="71.2" r="8.6"/>
	<circle class="st1" cx="49.6" cy="98" r="8.6"/>
	<circle class="st1" cx="94.8" cy="89.5" r="78.5"/>
</g>
<g id="black" class="st2">
	<circle class="st3" cx="94.8" cy="89.5" r="74.6"/>
	<rect x="332" y="163.4" class="st4" width="5.8" height="0"/>
	<line class="st5" x1="88.8" y1="79.2" x2="89.2" y2="168.2"/>
	<line class="st5" x1="113.2" y1="165.1" x2="113.2" y2="116.8"/>
	<line class="st5" x1="133.1" y1="97.8" x2="112.5" y2="118.4"/>
	<circle class="st5" cx="138.4" cy="92.5" r="8.6"/>
	<line class="st5" x1="102" y1="167.7" x2="102" y2="100"/>
	<line class="st5" x1="119.2" y1="83.6" x2="101.3" y2="101.5"/>
	<line class="st5" x1="118.4" y1="58.6" x2="118.4" y2="85.5"/>
	<circle class="st5" cx="118.4" cy="50" r="8.6"/>
	<line class="st5" x1="71" y1="162.9" x2="71" y2="124.2"/>
	<line class="st5" x1="71" y1="88.2" x2="71" y2="108.3"/>
	<line class="st5" x1="57.6" y1="75.9" x2="71.7" y2="90"/>
	<line class="st5" x1="48.5" y1="153.8" x2="48.5" y2="104.3"/>
	<line class="st5" x1="132" y1="159.2" x2="132" y2="132.8"/>
	<circle class="st5" cx="132" cy="124.9" r="8.6"/>
	<circle class="st5" cx="88.8" cy="72.1" r="8.6"/>
	<circle class="st5" cx="71" cy="116.8" r="8.6"/>
	<circle class="st5" cx="53.1" cy="71.4" r="8.6"/>
	<circle class="st5" cx="48.5" cy="98.2" r="8.6"/>
	<circle class="st5" cx="93.8" cy="89.7" r="78.5"/>
</g>
<g id="text">
	<text transform="matrix(1 0 0 1 193.0909 132.7347)" class="st6 st7 st8">Innovation &amp; Technology HUB</text>
	<text transform="matrix(1 0 0 1 195.8346 93.4378)" class="st6 st9 st10">GARDEN ROUTE</text>
</g>
</svg>
