<?xml version="1.0" encoding="UTF-8"?><svg id="a" xmlns="http://www.w3.org/2000/svg" viewBox="0 0 140 140"><line x1="65.77" y1="61" x2="66.07" y2="137.5" fill="none" stroke="#fff" stroke-miterlimit="10" stroke-width="5"/><line x1="86.68" y1="134.85" x2="86.68" y2="93.37" fill="none" stroke="#fff" stroke-miterlimit="10" stroke-width="5"/><line x1="103.8" y1="77.03" x2="86.12" y2="94.71" fill="none" stroke="#fff" stroke-miterlimit="10" stroke-width="5"/><circle cx="108.38" cy="72.45" r="7.37" fill="none" stroke="#fff" stroke-miterlimit="10" stroke-width="5"/><line x1="77.06" y1="137.13" x2="77.06" y2="78.85" fill="none" stroke="#fff" stroke-miterlimit="10" stroke-width="5"/><line x1="91.89" y1="64.76" x2="76.5" y2="80.14" fill="none" stroke="#fff" stroke-miterlimit="10" stroke-width="5"/><line x1="91.16" y1="43.25" x2="91.16" y2="66.43" fill="none" stroke="#fff" stroke-miterlimit="10" stroke-width="5"/><circle cx="91.16" cy="35.88" r="7.37" fill="none" stroke="#fff" stroke-miterlimit="10" stroke-width="5"/><line x1="50.38" y1="133" x2="50.38" y2="99.68" fill="none" stroke="#fff" stroke-miterlimit="10" stroke-width="5"/><line x1="50.38" y1="68.73" x2="50.38" y2="86" fill="none" stroke="#fff" stroke-miterlimit="10" stroke-width="5"/><line x1="38.87" y1="58.12" x2="51.05" y2="70.3" fill="none" stroke="#fff" stroke-miterlimit="10" stroke-width="5"/><line x1="31.12" y1="125.18" x2="31.12" y2="82.61" fill="none" stroke="#fff" stroke-miterlimit="10" stroke-width="5"/><line x1="102.91" y1="129.75" x2="102.91" y2="107.04" fill="none" stroke="#fff" stroke-miterlimit="10" stroke-width="5"/><circle cx="102.91" cy="100.26" r="7.37" fill="none" stroke="#fff" stroke-miterlimit="10" stroke-width="5"/><circle cx="65.75" cy="54.94" r="7.37" fill="none" stroke="#fff" stroke-miterlimit="10" stroke-width="5"/><circle cx="50.38" cy="93.37" r="7.37" fill="none" stroke="#fff" stroke-miterlimit="10" stroke-width="5"/><circle cx="35.02" cy="54.27" r="7.37" fill="none" stroke="#fff" stroke-miterlimit="10" stroke-width="5"/><circle cx="31.12" cy="77.37" r="7.37" fill="none" stroke="#fff" stroke-miterlimit="10" stroke-width="5"/><circle cx="70" cy="70" r="67.5" fill="none" stroke="#fff" stroke-miterlimit="10" stroke-width="5"/></svg>