<?xml version="1.0" encoding="UTF-8"?>
<svg id="a" xmlns="http://www.w3.org/2000/svg" version="1.1" viewBox="0 0 238.4 225.7">
  <!-- Generator: Adobe Illustrator 29.5.0, SVG Export Plug-In . SVG Version: 2.1.0 Build 137)  -->
  <line x1="112.6" y1="98.4" x2="113.1" y2="219.9" fill="none" stroke="#fff" stroke-miterlimit="10" stroke-width="5"/>
  <line x1="145.8" y1="215.8" x2="145.8" y2="149.9" fill="none" stroke="#fff" stroke-miterlimit="10" stroke-width="5"/>
  <line x1="172.9" y1="124" x2="144.9" y2="152" fill="none" stroke="#fff" stroke-miterlimit="10" stroke-width="5"/>
  <circle cx="180.3" cy="116.7" r="11.7" fill="none" stroke="#fff" stroke-miterlimit="10" stroke-width="5"/>
  <line x1="130.5" y1="219.5" x2="130.5" y2="126.8" fill="none" stroke="#fff" stroke-miterlimit="10" stroke-width="5"/>
  <line x1="154.1" y1="104.4" x2="129.6" y2="128.9" fill="none" stroke="#fff" stroke-miterlimit="10" stroke-width="5"/>
  <line x1="152.9" y1="70.3" x2="152.9" y2="107.1" fill="none" stroke="#fff" stroke-miterlimit="10" stroke-width="5"/>
  <circle cx="152.9" cy="58.5" r="11.7" fill="none" stroke="#fff" stroke-miterlimit="10" stroke-width="5"/>
  <line x1="88.1" y1="212.9" x2="88.1" y2="159.9" fill="none" stroke="#fff" stroke-miterlimit="10" stroke-width="5"/>
  <line x1="88.1" y1="110.7" x2="88.1" y2="138.2" fill="none" stroke="#fff" stroke-miterlimit="10" stroke-width="5"/>
  <line x1="69.8" y1="93.9" x2="89.2" y2="113.3" fill="none" stroke="#fff" stroke-miterlimit="10" stroke-width="5"/>
  <line x1="57.5" y1="199.4" x2="57.5" y2="132.8" fill="none" stroke="#fff" stroke-miterlimit="10" stroke-width="5"/>
  <line x1="171.6" y1="203.9" x2="171.6" y2="171.6" fill="none" stroke="#fff" stroke-miterlimit="10" stroke-width="5"/>
  <circle cx="171.6" cy="160.8" r="11.7" fill="none" stroke="#fff" stroke-miterlimit="10" stroke-width="5"/>
  <circle cx="112.6" cy="88.8" r="11.7" fill="none" stroke="#fff" stroke-miterlimit="10" stroke-width="5"/>
  <circle cx="88.1" cy="149.9" r="11.7" fill="none" stroke="#fff" stroke-miterlimit="10" stroke-width="5"/>
  <circle cx="63.6" cy="87.7" r="11.7" fill="none" stroke="#fff" stroke-miterlimit="10" stroke-width="5"/>
  <circle cx="57.5" cy="124.5" r="11.7" fill="none" stroke="#fff" stroke-miterlimit="10" stroke-width="5"/>
  <circle cx="119.2" cy="112.8" r="107.2" fill="none" stroke="#fff" stroke-miterlimit="10" stroke-width="5"/>
</svg>